<svg width="20" height="20" viewBox="0 0 20 20" fill="none" xmlns="http://www.w3.org/2000/svg">
<path d="M7.5 2.5H3.33333C2.8731 2.5 2.5 2.8731 2.5 3.33333V9.16667C2.5 9.6269 2.8731 10 3.33333 10H7.5C7.96024 10 8.33333 9.6269 8.33333 9.16667V3.33333C8.33333 2.8731 7.96024 2.5 7.5 2.5Z" stroke="#2563EB" stroke-width="1.66667" stroke-linecap="round" stroke-linejoin="round"/>
<path d="M16.668 2.5H12.5013C12.0411 2.5 11.668 2.8731 11.668 3.33333V5.83333C11.668 6.29357 12.0411 6.66667 12.5013 6.66667H16.668C17.1282 6.66667 17.5013 6.29357 17.5013 5.83333V3.33333C17.5013 2.8731 17.1282 2.5 16.668 2.5Z" stroke="#2563EB" stroke-width="1.66667" stroke-linecap="round" stroke-linejoin="round"/>
<path d="M16.668 10H12.5013C12.0411 10 11.668 10.3731 11.668 10.8333V16.6667C11.668 17.1269 12.0411 17.5 12.5013 17.5H16.668C17.1282 17.5 17.5013 17.1269 17.5013 16.6667V10.8333C17.5013 10.3731 17.1282 10 16.668 10Z" stroke="#2563EB" stroke-width="1.66667" stroke-linecap="round" stroke-linejoin="round"/>
<path d="M7.5 13.333H3.33333C2.8731 13.333 2.5 13.7061 2.5 14.1663V16.6663C2.5 17.1266 2.8731 17.4997 3.33333 17.4997H7.5C7.96024 17.4997 8.33333 17.1266 8.33333 16.6663V14.1663C8.33333 13.7061 7.96024 13.333 7.5 13.333Z" stroke="#2563EB" stroke-width="1.66667" stroke-linecap="round" stroke-linejoin="round"/>
</svg>
