<svg width="20" height="20" viewBox="0 0 20 20" fill="none" xmlns="http://www.w3.org/2000/svg">
<g clip-path="url(#clip0_462_11435)">
<path d="M18.3346 10.0003H16.268C15.9038 9.99955 15.5494 10.1181 15.2589 10.3378C14.9685 10.5575 14.758 10.8663 14.6596 11.217L12.7013 18.1837C12.6887 18.2269 12.6624 18.2649 12.6263 18.292C12.5902 18.319 12.5464 18.3337 12.5013 18.3337C12.4562 18.3337 12.4124 18.319 12.3763 18.292C12.3402 18.2649 12.3139 18.2269 12.3013 18.1837L7.7013 1.81699C7.68868 1.77372 7.66236 1.73571 7.6263 1.70866C7.59024 1.68161 7.54638 1.66699 7.5013 1.66699C7.45622 1.66699 7.41236 1.68161 7.3763 1.70866C7.34024 1.73571 7.31392 1.77372 7.3013 1.81699L5.34297 8.78366C5.24502 9.13295 5.03579 9.44076 4.74702 9.66034C4.45826 9.87992 4.10574 9.99929 3.74297 10.0003H1.66797" stroke="#6B7280" stroke-width="1.66667" stroke-linecap="round" stroke-linejoin="round"/>
</g>
<defs>
<clipPath id="clip0_462_11435">
<rect width="20" height="20" fill="white"/>
</clipPath>
</defs>
</svg>
