<svg width="20" height="20" viewBox="0 0 20 20" fill="none" xmlns="http://www.w3.org/2000/svg">
<path d="M10 16.667H10.0083" stroke="#EF4444" stroke-width="1.66667" stroke-linecap="round" stroke-linejoin="round"/>
<path d="M7.08203 13.6911C7.8609 12.9276 8.90806 12.5 9.9987 12.5C11.0893 12.5 12.1365 12.9276 12.9154 13.6911" stroke="#EF4444" stroke-width="1.66667" stroke-linecap="round" stroke-linejoin="round"/>
<path d="M4.16797 10.7163C5.34966 9.55787 6.84948 8.7775 8.4763 8.47461" stroke="#EF4444" stroke-width="1.66667" stroke-linecap="round" stroke-linejoin="round"/>
<path d="M15.8327 10.7155C15.3309 10.2236 14.7689 9.79714 14.1602 9.44629" stroke="#EF4444" stroke-width="1.66667" stroke-linecap="round" stroke-linejoin="round"/>
<path d="M1.66797 7.34996C2.69847 6.42836 3.87471 5.68409 5.1488 5.14746" stroke="#EF4444" stroke-width="1.66667" stroke-linecap="round" stroke-linejoin="round"/>
<path d="M18.3324 7.34985C17.0614 6.21302 15.5712 5.3483 13.9534 4.80887C12.3357 4.26944 10.6248 4.06672 8.92578 4.21318" stroke="#EF4444" stroke-width="1.66667" stroke-linecap="round" stroke-linejoin="round"/>
<path d="M1.66797 1.66699L18.3346 18.3337" stroke="#EF4444" stroke-width="1.66667" stroke-linecap="round" stroke-linejoin="round"/>
</svg>
